<svg width="34" height="25" viewBox="0 0 34 25" fill="none" xmlns="http://www.w3.org/2000/svg">
<path d="M6.78184 19.4451L6.20216 21.8107H5.61914L5.17685 20.0952L4.7312 21.8107H4.15153L3.57185 19.4451H4.08451L4.44639 21.278L4.91549 19.4451H5.43485L5.9073 21.278L6.26918 19.4451H6.78184ZM9.06522 19.4451V21.8107H8.58942V20.7821H7.5775V21.8107H7.10505V19.4451H7.5775V20.4034H8.58942V19.4451H9.06522ZM9.9662 19.4451V21.8107H9.49374V19.4451H9.9662ZM12.0019 19.4451V19.8204H11.3485V21.8107H10.8761V19.8204H10.2261V19.4451H12.0019ZM12.7345 19.8204V20.4336H13.5721V20.7955H12.7345V21.4321H13.6727V21.8107H12.262V19.4451H13.6727V19.8204H12.7345ZM16.8329 20.6246C16.8329 20.8591 16.7838 21.0658 16.6855 21.2445C16.5872 21.4232 16.4443 21.5628 16.2566 21.6633C16.0712 21.7616 15.8501 21.8107 15.5932 21.8107H14.7521V19.4451H15.5932C15.8501 19.4451 16.0712 19.4943 16.2566 19.5926C16.4443 19.6886 16.5872 19.826 16.6855 20.0047C16.7838 20.1812 16.8329 20.3878 16.8329 20.6246ZM15.553 21.3885C15.8076 21.3885 16.0042 21.3215 16.1427 21.1875C16.2834 21.0535 16.3538 20.8658 16.3538 20.6246C16.3538 20.3811 16.2834 20.1923 16.1427 20.0583C16.0042 19.9243 15.8076 19.8573 15.553 19.8573H15.2246V21.3885H15.553ZM17.6591 19.4451V21.8107H17.1866V19.4451H17.6591ZM19.5273 21.3349H18.5791L18.4115 21.8107H17.9123L18.7834 19.4719H19.3229L20.1907 21.8107H19.6915L19.5273 21.3349ZM19.4 20.9764L19.0515 19.9779L18.703 20.9764H19.4ZM22.9956 19.4719V21.8107H22.5265V20.1789L21.9268 21.8107H21.518L20.9182 20.1856V21.8107H20.4457V19.4719H21.0187L21.7291 21.2311L22.426 19.4719H22.9956ZM24.5325 19.4116C24.7537 19.4116 24.9536 19.463 25.1323 19.5658C25.3132 19.6685 25.4551 19.8126 25.5578 19.998C25.6628 20.1812 25.7153 20.3889 25.7153 20.6212C25.7153 20.8535 25.6628 21.0624 25.5578 21.2478C25.4551 21.4332 25.3132 21.5773 25.1323 21.6801C24.9536 21.7828 24.7537 21.8342 24.5325 21.8342C24.3114 21.8342 24.1103 21.7828 23.9294 21.6801C23.7507 21.5773 23.6088 21.4332 23.5038 21.2478C23.4011 21.0624 23.3497 20.8535 23.3497 20.6212C23.3497 20.3889 23.4011 20.1812 23.5038 19.998C23.6088 19.8126 23.7507 19.6685 23.9294 19.5658C24.1103 19.463 24.3114 19.4116 24.5325 19.4116ZM24.5325 19.8472C24.394 19.8472 24.2723 19.8785 24.1673 19.941C24.0623 20.0036 23.9796 20.094 23.9193 20.2124C23.8613 20.3286 23.8322 20.4649 23.8322 20.6212C23.8322 20.7776 23.8613 20.915 23.9193 21.0334C23.9796 21.1495 24.0623 21.2389 24.1673 21.3014C24.2723 21.364 24.394 21.3952 24.5325 21.3952C24.671 21.3952 24.7928 21.364 24.8977 21.3014C25.0027 21.2389 25.0843 21.1495 25.1423 21.0334C25.2027 20.915 25.2328 20.7776 25.2328 20.6212C25.2328 20.4649 25.2027 20.3286 25.1423 20.2124C25.0843 20.094 25.0027 20.0036 24.8977 19.941C24.7928 19.8785 24.671 19.8472 24.5325 19.8472ZM28.0744 21.8107H27.6019L26.5431 20.2024V21.8107H26.0706V19.4451H26.5431L27.6019 21.0669V19.4451H28.0744V21.8107ZM30.5826 20.6246C30.5826 20.8591 30.5335 21.0658 30.4352 21.2445C30.3369 21.4232 30.194 21.5628 30.0063 21.6633C29.8209 21.7616 29.5998 21.8107 29.3429 21.8107H28.5019V19.4451H29.3429C29.5998 19.4451 29.8209 19.4943 30.0063 19.5926C30.194 19.6886 30.3369 19.826 30.4352 20.0047C30.5335 20.1812 30.5826 20.3878 30.5826 20.6246ZM29.3027 21.3885C29.5573 21.3885 29.7539 21.3215 29.8924 21.1875C30.0331 21.0535 30.1035 20.8658 30.1035 20.6246C30.1035 20.3811 30.0331 20.1923 29.8924 20.0583C29.7539 19.9243 29.5573 19.8573 29.3027 19.8573H28.9743V21.3885H29.3027Z" fill="#FF7F00"/>
<path d="M9.66293 24.1154C9.66293 24.1666 9.65061 24.2144 9.62597 24.2588C9.60133 24.3021 9.56388 24.3371 9.51362 24.3637C9.46336 24.3903 9.40177 24.4036 9.32884 24.4036C9.25788 24.4036 9.19432 24.3913 9.13814 24.3667C9.08197 24.341 9.03713 24.3056 9.00362 24.2602C8.97012 24.2149 8.9509 24.1627 8.94597 24.1035H9.12632C9.13125 24.1489 9.15046 24.1878 9.18397 24.2203C9.21846 24.2528 9.26429 24.2691 9.32145 24.2691C9.3727 24.2691 9.41212 24.2553 9.43971 24.2277C9.46829 24.2001 9.48258 24.1646 9.48258 24.1213C9.48258 24.0838 9.47223 24.0533 9.45154 24.0296C9.43084 24.005 9.40522 23.9858 9.37467 23.972C9.34412 23.9582 9.30223 23.9424 9.24901 23.9247C9.18397 23.904 9.13075 23.8833 9.08936 23.8626C9.04896 23.8419 9.01446 23.8118 8.98588 23.7724C8.9573 23.733 8.94302 23.6813 8.94302 23.6172C8.94302 23.561 8.95681 23.5117 8.98441 23.4694C9.012 23.427 9.05142 23.3945 9.10267 23.3718C9.15391 23.3482 9.21304 23.3363 9.28006 23.3363C9.38649 23.3363 9.47075 23.3619 9.53284 23.4132C9.59591 23.4644 9.63188 23.5315 9.64075 23.6142H9.45893C9.45203 23.5748 9.4333 23.5413 9.40275 23.5137C9.37319 23.4851 9.33229 23.4708 9.28006 23.4708C9.23275 23.4708 9.19481 23.4832 9.16623 23.5078C9.13765 23.5315 9.12336 23.5659 9.12336 23.6113C9.12336 23.6468 9.13322 23.6763 9.15293 23.7C9.17264 23.7226 9.19728 23.7409 9.22684 23.7547C9.25739 23.7675 9.29878 23.7828 9.35101 23.8005C9.41704 23.8212 9.47075 23.8424 9.51214 23.8641C9.55452 23.8848 9.59 23.9153 9.61858 23.9557C9.64814 23.9961 9.66293 24.0493 9.66293 24.1154ZM9.80798 23.3422C9.80798 23.3137 9.81784 23.29 9.83755 23.2713C9.85726 23.2526 9.88337 23.2432 9.91589 23.2432C9.94841 23.2432 9.97453 23.2526 9.99424 23.2713C10.0149 23.29 10.0253 23.3137 10.0253 23.3422C10.0253 23.3708 10.0149 23.394 9.99424 23.4117C9.97453 23.4295 9.94841 23.4383 9.91589 23.4383C9.88337 23.4383 9.85726 23.4295 9.83755 23.4117C9.81784 23.394 9.80798 23.3708 9.80798 23.3422ZM10.0002 23.5788V24.3933H9.83163V23.5788H10.0002ZM10.5308 23.5684C10.6047 23.5684 10.6678 23.5866 10.72 23.6231C10.7722 23.6596 10.8087 23.7079 10.8294 23.768V23.2994H10.9994V24.3933H10.8294V24.2041C10.8087 24.2642 10.7722 24.3125 10.72 24.3489C10.6678 24.3854 10.6047 24.4036 10.5308 24.4036C10.4598 24.4036 10.3963 24.3869 10.3401 24.3534C10.2849 24.3199 10.2415 24.2716 10.21 24.2085C10.1785 24.1454 10.1627 24.071 10.1627 23.9853C10.1627 23.9005 10.1785 23.8266 10.21 23.7635C10.2415 23.7005 10.2849 23.6522 10.3401 23.6187C10.3963 23.5852 10.4598 23.5684 10.5308 23.5684ZM10.5825 23.7162C10.5076 23.7162 10.4475 23.7404 10.4022 23.7887C10.3578 23.836 10.3356 23.9015 10.3356 23.9853C10.3356 24.069 10.3578 24.1351 10.4022 24.1834C10.4475 24.2307 10.5076 24.2543 10.5825 24.2543C10.6298 24.2543 10.6722 24.2435 10.7096 24.2218C10.7471 24.1991 10.7767 24.1676 10.7983 24.1272C10.82 24.0868 10.8309 24.0395 10.8309 23.9853C10.8309 23.9321 10.82 23.8853 10.7983 23.8448C10.7767 23.8035 10.7471 23.7719 10.7096 23.7502C10.6722 23.7276 10.6298 23.7162 10.5825 23.7162ZM11.178 23.3422C11.178 23.3137 11.1878 23.29 11.2075 23.2713C11.2272 23.2526 11.2534 23.2432 11.2859 23.2432C11.3184 23.2432 11.3445 23.2526 11.3642 23.2713C11.3849 23.29 11.3953 23.3137 11.3953 23.3422C11.3953 23.3708 11.3849 23.394 11.3642 23.4117C11.3445 23.4295 11.3184 23.4383 11.2859 23.4383C11.2534 23.4383 11.2272 23.4295 11.2075 23.4117C11.1878 23.394 11.178 23.3708 11.178 23.3422ZM11.3701 23.5788V24.3933H11.2016V23.5788H11.3701ZM12.0294 23.5655C12.124 23.5655 12.1999 23.596 12.257 23.6571C12.3142 23.7182 12.3428 23.8054 12.3428 23.9188V24.3933H12.1742V23.9365C12.1742 23.8636 12.1555 23.8074 12.1181 23.768C12.0806 23.7276 12.0294 23.7074 11.9643 23.7074C11.8973 23.7074 11.8436 23.729 11.8032 23.7724C11.7628 23.8148 11.7426 23.8774 11.7426 23.9602V24.3933H11.5741V23.5788H11.7426V23.7576C11.7643 23.6965 11.8007 23.6492 11.852 23.6157C11.9032 23.5822 11.9624 23.5655 12.0294 23.5655ZM12.8665 23.5684C12.9405 23.5684 13.0035 23.5866 13.0558 23.6231C13.108 23.6596 13.1449 23.7079 13.1666 23.768V23.5788H13.3351V24.4021C13.3351 24.478 13.3194 24.545 13.2878 24.6032C13.2573 24.6623 13.2129 24.7086 13.1548 24.7421C13.0967 24.7757 13.0277 24.7924 12.9478 24.7924C12.8335 24.7924 12.7409 24.7653 12.6699 24.7111C12.6 24.6569 12.5561 24.5835 12.5384 24.4908H12.7054C12.7192 24.5391 12.7458 24.5766 12.7852 24.6032C12.8247 24.6308 12.8749 24.6446 12.936 24.6446C13.003 24.6446 13.0582 24.6239 13.1016 24.5825C13.1449 24.5411 13.1666 24.481 13.1666 24.4021V24.2041C13.1449 24.2642 13.108 24.3125 13.0558 24.3489C13.0035 24.3854 12.9405 24.4036 12.8665 24.4036C12.7956 24.4036 12.732 24.3869 12.6758 24.3534C12.6207 24.3199 12.5773 24.2716 12.5458 24.2085C12.5142 24.1454 12.4985 24.071 12.4985 23.9853C12.4985 23.9005 12.5142 23.8266 12.5458 23.7635C12.5773 23.7005 12.6207 23.6522 12.6758 23.6187C12.732 23.5852 12.7956 23.5684 12.8665 23.5684ZM12.9183 23.7162C12.8434 23.7162 12.7833 23.7404 12.7379 23.7887C12.6936 23.836 12.6714 23.9015 12.6714 23.9853C12.6714 24.069 12.6936 24.1351 12.7379 24.1834C12.7833 24.2307 12.8434 24.2543 12.9183 24.2543C12.9656 24.2543 13.008 24.2435 13.0454 24.2218C13.0829 24.1991 13.1124 24.1676 13.1341 24.1272C13.1558 24.0868 13.1666 24.0395 13.1666 23.9853C13.1666 23.9321 13.1558 23.8853 13.1341 23.8448C13.1124 23.8035 13.0829 23.7719 13.0454 23.7502C13.008 23.7276 12.9656 23.7162 12.9183 23.7162ZM14.6141 24.3933L14.419 24.173C14.418 24.1829 14.4131 24.2001 14.4042 24.2248C14.3904 24.278 14.3603 24.3213 14.314 24.3548C14.2687 24.3874 14.2145 24.4036 14.1514 24.4036C14.0874 24.4036 14.0312 24.3903 13.9829 24.3637C13.9346 24.3371 13.8972 24.3001 13.8705 24.2528C13.8439 24.2055 13.8306 24.1513 13.8306 24.0902C13.8306 24.0282 13.8425 23.9744 13.8661 23.9291C13.8907 23.8838 13.9238 23.8493 13.9651 23.8256C14.0065 23.802 14.0524 23.7902 14.1026 23.7902H14.113L14.0938 23.7635C14.0701 23.734 14.0519 23.7049 14.0391 23.6763C14.0263 23.6468 14.0198 23.6137 14.0198 23.5773C14.0198 23.5359 14.0302 23.497 14.0509 23.4605C14.0726 23.424 14.1041 23.395 14.1455 23.3733C14.1879 23.3506 14.2381 23.3393 14.2963 23.3393C14.383 23.3393 14.449 23.36 14.4944 23.4014C14.5407 23.4428 14.5698 23.495 14.5816 23.5581C14.5905 23.5906 14.5939 23.6256 14.5919 23.663H14.4323V23.6468C14.4323 23.632 14.4318 23.6211 14.4308 23.6142C14.4298 23.5728 14.4175 23.5403 14.3938 23.5167C14.3712 23.493 14.3396 23.4812 14.2992 23.4812C14.2618 23.4812 14.2322 23.492 14.2105 23.5137C14.1898 23.5354 14.1795 23.562 14.1795 23.5935C14.1795 23.6202 14.1844 23.6433 14.1943 23.663C14.2051 23.6827 14.2214 23.7059 14.2431 23.7325L14.7871 24.3933H14.6141ZM14.1529 24.2602C14.2012 24.2602 14.2406 24.245 14.2711 24.2144C14.3027 24.1839 14.3185 24.1444 14.3185 24.0962C14.3185 24.0626 14.3096 24.0326 14.2918 24.006C14.2751 23.9784 14.2524 23.9572 14.2238 23.9424C14.1963 23.9266 14.1672 23.9188 14.1366 23.9188C14.0893 23.9188 14.0509 23.9335 14.0213 23.9631C13.9918 23.9917 13.977 24.0326 13.977 24.0858C13.977 24.14 13.9937 24.1829 14.0272 24.2144C14.0617 24.245 14.1036 24.2602 14.1529 24.2602ZM15.7907 24.3933L15.5305 23.9764H15.4108V24.3933H15.2423V23.3496H15.6104C15.7296 23.3496 15.8198 23.3787 15.8809 23.4368C15.943 23.495 15.974 23.5719 15.974 23.6675C15.974 23.7493 15.9509 23.8163 15.9045 23.8685C15.8592 23.9207 15.7932 23.9542 15.7065 23.969L15.9799 24.3933H15.7907ZM15.4108 23.8567H15.5971C15.7331 23.8567 15.8011 23.7966 15.8011 23.6763C15.8011 23.6192 15.7843 23.5748 15.7508 23.5433C15.7183 23.5108 15.667 23.4945 15.5971 23.4945H15.4108V23.8567ZM16.8826 23.9468C16.8826 23.9744 16.8807 23.9986 16.8767 24.0193H16.2499C16.2529 24.103 16.2761 24.1651 16.3194 24.2055C16.3628 24.2459 16.4165 24.2661 16.4806 24.2661C16.5367 24.2661 16.584 24.2519 16.6225 24.2233C16.6619 24.1947 16.686 24.1568 16.6949 24.1095H16.8752C16.8644 24.1666 16.8417 24.2174 16.8072 24.2617C16.7728 24.3061 16.7279 24.341 16.6727 24.3667C16.6175 24.3913 16.5559 24.4036 16.4879 24.4036C16.4091 24.4036 16.3391 24.3869 16.278 24.3534C16.2179 24.3199 16.1706 24.2716 16.1361 24.2085C16.1016 24.1454 16.0844 24.071 16.0844 23.9853C16.0844 23.9005 16.1016 23.8266 16.1361 23.7635C16.1706 23.7005 16.2179 23.6522 16.278 23.6187C16.3391 23.5852 16.4091 23.5684 16.4879 23.5684C16.5678 23.5684 16.6372 23.5852 16.6964 23.6187C16.7565 23.6512 16.8023 23.6965 16.8339 23.7547C16.8664 23.8118 16.8826 23.8759 16.8826 23.9468ZM16.7126 23.9424C16.7146 23.8892 16.7052 23.8448 16.6846 23.8094C16.6648 23.7729 16.6372 23.7463 16.6018 23.7295C16.5673 23.7118 16.5293 23.7029 16.4879 23.7029C16.4219 23.7029 16.3667 23.7231 16.3224 23.7635C16.278 23.8039 16.2539 23.8636 16.2499 23.9424H16.7126ZM17.5007 23.5655C17.5953 23.5655 17.6711 23.596 17.7283 23.6571C17.7855 23.7182 17.814 23.8054 17.814 23.9188V24.3933H17.6455V23.9365C17.6455 23.8636 17.6268 23.8074 17.5894 23.768C17.5519 23.7276 17.5007 23.7074 17.4356 23.7074C17.3686 23.7074 17.3149 23.729 17.2745 23.7724C17.2341 23.8148 17.2139 23.8774 17.2139 23.9602V24.3933H17.0454V23.5788H17.2139V23.7576C17.2356 23.6965 17.272 23.6492 17.3233 23.6157C17.3745 23.5822 17.4336 23.5655 17.5007 23.5655ZM18.3836 23.5684C18.4625 23.5684 18.5334 23.5852 18.5965 23.6187C18.6596 23.6522 18.7089 23.7005 18.7443 23.7635C18.7798 23.8266 18.7976 23.9005 18.7976 23.9853C18.7976 24.071 18.7798 24.1454 18.7443 24.2085C18.7089 24.2716 18.6596 24.3199 18.5965 24.3534C18.5334 24.3869 18.4625 24.4036 18.3836 24.4036C18.3048 24.4036 18.2339 24.3869 18.1708 24.3534C18.1087 24.3199 18.0594 24.2716 18.023 24.2085C17.9875 24.1444 17.9697 24.07 17.9697 23.9853C17.9697 23.9005 17.9875 23.8266 18.023 23.7635C18.0594 23.7005 18.1087 23.6522 18.1708 23.6187C18.2339 23.5852 18.3048 23.5684 18.3836 23.5684ZM18.3836 23.7148C18.3403 23.7148 18.3004 23.7246 18.2639 23.7443C18.2274 23.764 18.1979 23.7946 18.1752 23.836C18.1535 23.8764 18.1427 23.9262 18.1427 23.9853C18.1427 24.0454 18.1535 24.0957 18.1752 24.1361C18.1979 24.1765 18.2274 24.2065 18.2639 24.2262C18.3004 24.2459 18.3403 24.2558 18.3836 24.2558C18.427 24.2558 18.4669 24.2459 18.5034 24.2262C18.5399 24.2065 18.5689 24.1765 18.5906 24.1361C18.6133 24.0957 18.6246 24.0454 18.6246 23.9853C18.6246 23.9262 18.6133 23.8764 18.5906 23.836C18.5689 23.7946 18.5399 23.764 18.5034 23.7443C18.4669 23.7246 18.427 23.7148 18.3836 23.7148ZM19.2937 24.2188L19.5243 23.5788H19.7046L19.3942 24.3933H19.1902L18.8798 23.5788H19.0601L19.2937 24.2188ZM20.1553 23.5684C20.2292 23.5684 20.2923 23.5866 20.3445 23.6231C20.3968 23.6596 20.4337 23.7079 20.4554 23.768V23.5788H20.6239V24.3933H20.4554V24.2041C20.4337 24.2642 20.3968 24.3125 20.3445 24.3489C20.2923 24.3854 20.2292 24.4036 20.1553 24.4036C20.0844 24.4036 20.0208 24.3869 19.9646 24.3534C19.9094 24.3199 19.8661 24.2716 19.8345 24.2085C19.803 24.1454 19.7872 24.071 19.7872 23.9853C19.7872 23.9005 19.803 23.8266 19.8345 23.7635C19.8661 23.7005 19.9094 23.6522 19.9646 23.6187C20.0208 23.5852 20.0844 23.5684 20.1553 23.5684ZM20.2071 23.7162C20.1322 23.7162 20.0721 23.7404 20.0267 23.7887C19.9824 23.836 19.9602 23.9015 19.9602 23.9853C19.9602 24.069 19.9824 24.1351 20.0267 24.1834C20.0721 24.2307 20.1322 24.2543 20.2071 24.2543C20.2544 24.2543 20.2967 24.2435 20.3342 24.2218C20.3716 24.1991 20.4012 24.1676 20.4229 24.1272C20.4446 24.0868 20.4554 24.0395 20.4554 23.9853C20.4554 23.9321 20.4446 23.8853 20.4229 23.8448C20.4012 23.8035 20.3716 23.7719 20.3342 23.7502C20.2967 23.7276 20.2544 23.7162 20.2071 23.7162ZM21.2356 24.2469V24.3933H21.1322C21.0454 24.3933 20.9794 24.3726 20.9341 24.3312C20.8897 24.2888 20.8676 24.2188 20.8676 24.1213V23.7222H20.7508V23.5788H20.8676V23.3762H21.0376V23.5788H21.2342V23.7222H21.0376V24.1242C21.0376 24.1706 21.0459 24.2026 21.0627 24.2203C21.0804 24.2381 21.111 24.2469 21.1543 24.2469H21.2356ZM21.3699 23.3422C21.3699 23.3137 21.3797 23.29 21.3994 23.2713C21.4191 23.2526 21.4452 23.2432 21.4778 23.2432C21.5103 23.2432 21.5364 23.2526 21.5561 23.2713C21.5768 23.29 21.5872 23.3137 21.5872 23.3422C21.5872 23.3708 21.5768 23.394 21.5561 23.4117C21.5364 23.4295 21.5103 23.4383 21.4778 23.4383C21.4452 23.4383 21.4191 23.4295 21.3994 23.4117C21.3797 23.394 21.3699 23.3708 21.3699 23.3422ZM21.562 23.5788V24.3933H21.3935V23.5788H21.562ZM22.1385 23.5684C22.2173 23.5684 22.2883 23.5852 22.3513 23.6187C22.4144 23.6522 22.4637 23.7005 22.4992 23.7635C22.5347 23.8266 22.5524 23.9005 22.5524 23.9853C22.5524 24.071 22.5347 24.1454 22.4992 24.2085C22.4637 24.2716 22.4144 24.3199 22.3513 24.3534C22.2883 24.3869 22.2173 24.4036 22.1385 24.4036C22.0596 24.4036 21.9887 24.3869 21.9256 24.3534C21.8635 24.3199 21.8142 24.2716 21.7778 24.2085C21.7423 24.1444 21.7246 24.07 21.7246 23.9853C21.7246 23.9005 21.7423 23.8266 21.7778 23.7635C21.8142 23.7005 21.8635 23.6522 21.9256 23.6187C21.9887 23.5852 22.0596 23.5684 22.1385 23.5684ZM22.1385 23.7148C22.0951 23.7148 22.0552 23.7246 22.0187 23.7443C21.9823 23.764 21.9527 23.7946 21.93 23.836C21.9084 23.8764 21.8975 23.9262 21.8975 23.9853C21.8975 24.0454 21.9084 24.0957 21.93 24.1361C21.9527 24.1765 21.9823 24.2065 22.0187 24.2262C22.0552 24.2459 22.0951 24.2558 22.1385 24.2558C22.1818 24.2558 22.2218 24.2459 22.2582 24.2262C22.2947 24.2065 22.3238 24.1765 22.3454 24.1361C22.3681 24.0957 22.3794 24.0454 22.3794 23.9853C22.3794 23.9262 22.3681 23.8764 22.3454 23.836C22.3238 23.7946 22.2947 23.764 22.2582 23.7443C22.2218 23.7246 22.1818 23.7148 22.1385 23.7148ZM23.1697 23.5655C23.2643 23.5655 23.3402 23.596 23.3974 23.6571C23.4545 23.7182 23.4831 23.8054 23.4831 23.9188V24.3933H23.3146V23.9365C23.3146 23.8636 23.2959 23.8074 23.2584 23.768C23.221 23.7276 23.1697 23.7074 23.1047 23.7074C23.0377 23.7074 22.9839 23.729 22.9435 23.7724C22.9031 23.8148 22.8829 23.8774 22.8829 23.9602V24.3933H22.7144V23.5788H22.8829V23.7576C22.9046 23.6965 22.9411 23.6492 22.9923 23.6157C23.0436 23.5822 23.1027 23.5655 23.1697 23.5655ZM23.9477 23.5684C24.0433 23.5684 24.1197 23.5931 24.1769 23.6423C24.235 23.6906 24.2705 23.7557 24.2833 23.8375H24.1237C24.1168 23.7931 24.0975 23.7576 24.066 23.731C24.0355 23.7034 23.9946 23.6896 23.9433 23.6896C23.9009 23.6896 23.8679 23.7 23.8443 23.7207C23.8216 23.7404 23.8103 23.7675 23.8103 23.802C23.8103 23.8276 23.8186 23.8483 23.8354 23.8641C23.8522 23.8798 23.8729 23.8922 23.8975 23.901C23.9231 23.9099 23.9591 23.9197 24.0054 23.9306C24.0665 23.9444 24.1158 23.9587 24.1532 23.9735C24.1917 23.9882 24.2242 24.0119 24.2508 24.0444C24.2784 24.0759 24.2922 24.1193 24.2922 24.1745C24.2922 24.2425 24.2661 24.2977 24.2138 24.3401C24.1626 24.3824 24.0931 24.4036 24.0054 24.4036C23.9039 24.4036 23.8216 24.38 23.7585 24.3327C23.6964 24.2854 23.659 24.2193 23.6462 24.1346H23.8103C23.8152 24.1789 23.8349 24.2149 23.8694 24.2425C23.9039 24.2701 23.9492 24.2839 24.0054 24.2839C24.0458 24.2839 24.0773 24.2735 24.1 24.2528C24.1237 24.2312 24.1355 24.2041 24.1355 24.1715C24.1355 24.143 24.1266 24.1203 24.1089 24.1035C24.0911 24.0868 24.069 24.074 24.0424 24.0651C24.0157 24.0553 23.9793 24.0454 23.933 24.0355C23.8738 24.0217 23.8255 24.0079 23.7881 23.9942C23.7516 23.9804 23.7201 23.9582 23.6935 23.9276C23.6679 23.8961 23.6551 23.8537 23.6551 23.8005C23.6551 23.7315 23.6807 23.6758 23.7319 23.6335C23.7842 23.5901 23.8561 23.5684 23.9477 23.5684Z" fill="white"/>
<path d="M7.85437 23.4576H0.188309V23.5639H7.85437V23.4576Z" fill="white"/>
<path d="M34 23.4576H26.3339V23.5639H34V23.4576Z" fill="white"/>
<path d="M23.0734 9.31348H22.1254V10.2615H23.0734V9.31348Z" fill="white"/>
<path d="M23.0734 10.5672H22.1254V11.5152H23.0734V10.5672Z" fill="white"/>
<path d="M24.3265 9.31348H23.3785V10.2615H24.3265V9.31348Z" fill="white"/>
<path d="M24.3265 10.5672H23.3785V11.5152H24.3265V10.5672Z" fill="white"/>
<path d="M10.8932 7.82175H9.48303V9.23197H10.8932V7.82175Z" fill="white"/>
<path d="M10.8932 9.68668H9.48305V11.098H10.8932V9.68668Z" fill="white"/>
<path d="M12.7582 7.82178H11.348V9.232H12.7582V7.82178Z" fill="white"/>
<path d="M12.7582 9.68668H11.348V11.098H12.7582V9.68668Z" fill="white"/>
<path d="M7.77348 3.19962C7.80272 3.22337 7.82034 3.19753 7.86809 3.19025C7.91971 3.22635 8.01092 3.2126 8.0605 3.19927C8.06546 3.22186 8.08344 3.24199 8.10414 3.25263C8.10585 3.25438 8.10759 3.25441 8.10931 3.25444L8.00831 3.37128C7.95477 3.35162 7.87016 3.31862 7.84429 3.30446C7.75527 3.27921 7.74427 3.17331 7.77348 3.19962ZM2.32146 8.12772L2.72032 7.73625L3.98633 7.71851L4.08236 7.71703L4.4827 7.33443L4.39111 7.33591L3.10884 7.35364L3.16794 7.2975L3.50179 6.97397L4.79588 6.95475L4.88304 6.95327L5.28338 6.57067L5.20214 6.57215L3.89625 6.59137L4.02624 6.46432L4.2183 6.27375L4.28624 6.20876L5.60691 6.19103L5.6852 6.18955L6.08702 5.80694L6.01317 5.80842L4.67623 5.82764L4.87565 5.6297L5.06031 5.44504L6.41939 5.42582L6.48733 5.42434L6.88768 5.04174L6.82562 5.04322L6.29528 5.05061C6.30415 4.97084 6.30711 4.88073 6.30267 4.78026C6.29824 4.69754 6.29676 4.62957 6.30119 4.57198C6.30119 4.46265 6.30858 4.39914 6.32337 4.36222C6.34406 4.26914 6.38395 4.30016 6.39131 4.17903C6.39131 4.16868 6.38983 4.15833 6.39426 4.14654C6.40461 3.95448 6.40757 3.77721 6.42823 3.65756C6.45629 3.51721 6.48142 3.67825 6.61733 3.72846C6.75916 3.78312 6.92756 3.69005 6.92756 3.72402C6.92756 3.75799 7.02802 3.94413 7.02211 4.06083C7.02211 4.08445 7.01915 4.11106 7.02063 4.13616C7.00881 4.23219 6.99846 4.32082 7.03837 4.35479C7.07825 4.38137 7.01915 4.70047 7.02654 4.85412C7.02654 4.87038 7.02802 4.88513 7.03098 4.89696V4.90287L7.52735 4.43311L7.52883 4.3814L7.53917 4.1288C7.5377 4.04016 7.53622 3.96779 7.50964 3.92938C7.4668 3.87028 7.39147 3.35916 7.2393 3.26904C7.09156 3.17893 6.97043 3.15826 6.97043 3.11687C6.97486 3.0829 7.20089 3.15232 7.24225 2.9145C7.24225 2.9145 7.45793 3.48324 7.74749 3.47881C7.74749 3.47881 7.77407 3.5246 7.87305 3.57484C7.96613 3.61915 8.17441 3.67086 8.19954 3.72849C8.2025 3.7344 8.20398 3.74031 8.20693 3.74327C8.21876 3.76396 8.23203 3.74031 8.25125 3.71965C8.25864 3.71965 8.26751 3.71965 8.27343 3.7226L8.42116 3.58078C8.40933 3.58078 8.39754 3.57782 8.38571 3.57339C8.36945 3.56895 8.35618 3.56008 8.34731 3.54976C8.33105 3.54237 8.29708 3.49066 8.28821 3.49066C8.24389 3.47145 8.19514 3.45669 8.16856 3.43156C8.15525 3.42269 8.13607 3.41382 8.11685 3.40794L8.24093 3.26759C8.25867 3.26612 8.27638 3.26464 8.29116 3.25429C8.3207 3.23655 8.33696 3.2011 8.34731 3.17009C8.35618 3.15087 8.36209 3.13612 8.36653 3.12134L8.39163 3.09328L8.45073 3.02682L8.45664 3.01942L8.52754 2.9367L8.628 2.82444C8.63687 2.8141 8.64278 2.80522 8.65162 2.79638C8.6531 2.79491 8.65606 2.79491 8.65754 2.79491C8.66049 2.79491 8.66345 2.79786 8.66493 2.80082L8.67232 2.80673C8.68119 2.81708 8.69594 2.82299 8.69153 2.83775C8.68562 2.84662 8.67675 2.85844 8.6871 2.87024C8.69301 2.87615 8.70188 2.88206 8.7078 2.88946C8.71666 2.89389 8.72258 2.90128 8.72997 2.90719C8.7344 2.90867 8.73736 2.91163 8.7418 2.91311C8.74919 2.91311 8.75658 2.90867 8.76101 2.90276L8.80977 2.84662C8.81568 2.83923 8.82603 2.83183 8.8275 2.82152C8.82898 2.81265 8.82603 2.80378 8.81864 2.79937L8.80385 2.78459C8.79498 2.7772 8.78611 2.76833 8.77432 2.76241C8.76693 2.75798 8.76101 2.76094 8.7507 2.76389C8.74183 2.76981 8.73443 2.76389 8.72852 2.7565L8.71522 2.74468C8.71078 2.74172 8.70487 2.74024 8.70339 2.73433C8.70339 2.73285 8.70635 2.72989 8.70783 2.72694C8.72113 2.70476 8.696 2.68705 8.68125 2.67523C8.65615 2.65305 8.63249 2.62943 8.60444 2.61021C8.58226 2.59395 8.55273 2.58807 8.52615 2.58363C8.47739 2.57772 8.42421 2.58216 8.37841 2.5925C8.38432 2.59398 8.39615 2.59842 8.40058 2.59989C8.41093 2.60285 8.4198 2.60581 8.43012 2.60876C8.44786 2.61616 8.46409 2.62207 8.48035 2.63386C8.49809 2.64273 8.51284 2.65456 8.52615 2.66636C8.53797 2.6767 8.55273 2.68705 8.5616 2.70033C8.57933 2.73134 8.54534 2.75795 8.52615 2.7801L8.52171 2.78601L8.50989 2.79783L8.46705 2.84954L8.43455 2.88647L8.36366 2.96771L8.35479 2.97511L8.29717 3.04012L8.29421 3.04456C8.27351 3.04012 8.25137 3.03273 8.22627 3.02829C8.18638 3.02238 8.14355 3.01795 8.10218 3.02386C8.08888 3.02534 8.07413 3.02829 8.05934 3.03273C8.05195 3.03421 8.04308 3.03716 8.03276 3.04012C8.0239 3.04308 8.01207 3.04899 8.00027 3.05195C7.96482 3.0549 7.91459 3.04455 7.87619 2.97218C7.82448 2.8614 7.7521 2.78604 7.72845 2.76241C7.70335 2.74172 7.68561 2.70479 7.67822 2.60288C7.66935 2.49946 7.66935 2.49946 7.66935 2.49946C7.66935 2.49946 7.69593 2.47584 7.71071 2.48911C7.73289 2.51129 7.82149 2.64129 8.00911 2.28526C8.00911 2.28526 8.11253 2.44628 8.23957 2.38129C8.23957 2.38129 8.11401 2.21732 8.10218 2.1804C8.10218 2.1804 8.27059 1.90709 8.0874 1.74313C8.0874 1.74313 7.79048 1.53188 7.5866 1.76971C7.5866 1.76971 7.4699 1.97504 7.40489 1.97799C7.40489 1.97799 7.22023 1.9706 7.07104 2.03561C6.92922 2.09915 6.87455 2.11095 6.79922 2.11243C6.71797 2.11243 6.09013 2.32071 5.92764 2.56004C5.92764 2.56004 5.87149 2.61175 5.83752 2.60436C5.79912 2.59549 5.839 2.6679 5.77251 2.70187C5.70309 2.73731 5.65877 2.69595 5.64399 2.75653C5.63364 2.81711 5.62329 2.80233 5.58193 2.84369C5.54057 2.88653 5.43567 3.11403 5.7208 3.55426C5.7208 3.55426 5.80352 3.70347 5.7917 3.79359C5.78135 3.88814 5.88181 3.87188 5.87294 3.99448C5.8626 4.0595 5.88181 4.09051 5.89068 4.15254C5.89807 4.19538 5.89807 4.25891 5.89364 4.36822C5.8892 4.39332 5.88625 4.42436 5.88477 4.45094C5.87294 4.49969 5.86999 4.54105 5.86999 4.57798C5.85964 4.8114 5.91874 4.86458 5.89804 4.98867C5.89657 5.01229 5.89361 5.03447 5.89213 5.05661L5.45338 5.064L5.70747 4.81435L5.16087 4.82322L4.90826 5.07139L4.72064 5.25458L4.71177 5.26197L4.53893 5.43333L4.51971 5.45255L4.12972 5.83515L3.93323 6.02573L3.7397 6.21778L3.67324 6.28277L3.4797 6.47334L3.35118 6.60039L3.30243 6.6447L3.15321 6.78948L2.9582 6.98154L2.62728 7.30507L2.56818 7.36269L2.42931 7.49713L2.37169 7.55475L2.23726 7.6877L2.22247 7.70248L2.17816 7.74532L2.04964 7.86645L2.32146 8.12772Z" fill="white"/>
<path d="M4.3854 9.45413V17.5515H2.92592V10.8577L4.38085 9.45756L4.3854 9.45413Z" fill="white"/>
<path d="M31.2416 10.0269L31.1891 16.2392V17.5515H29.7308V8.56174L31.2416 10.0269Z" fill="white"/>
<path d="M18.7181 8.253L17.6649 9.26789L11.1205 2.97178L4.38568 9.45403L4.38127 9.45699L2.92617 10.8589L2.92173 10.8633L2.29241 11.4675H0.182877L2.92173 8.83062L4.3813 7.42722L11.1205 0.942017L11.2195 1.03804L11.3022 1.11633L11.9183 1.70873C11.9035 1.71316 11.8887 1.7176 11.8725 1.7176L12.0631 1.90374C12.069 1.90078 12.0823 1.90079 12.0926 1.90079C12.1162 1.92592 12.1325 1.95989 12.1487 1.9318L13.0188 2.76941L13.0218 2.8359L13.6585 3.4534V3.44601C13.6614 3.42975 13.6644 3.41056 13.6644 3.38986L13.9229 3.63803L13.8432 3.63655L14.3558 4.13736L14.4459 4.14031L14.9659 4.64257L14.8713 4.63961L15.3869 5.14186L15.4888 5.14482L16.0088 5.64562L15.9025 5.64267L16.4165 6.14495L16.5303 6.14791L17.0503 6.64723L16.9321 6.64427L17.4462 7.14653L17.5718 7.14948L18.7181 8.253Z" fill="#FF7F00"/>
<path d="M12.1493 1.93215C12.1324 1.95917 12.1166 1.9265 12.0919 1.90063C12.0817 1.90063 12.0694 1.90064 12.0626 1.90401L11.8724 1.71831C11.8882 1.71718 11.9039 1.71381 11.9186 1.70929L12.1493 1.93215Z" fill="#FF7F00"/>
<path d="M13.6642 3.38963C13.6642 3.411 13.6619 3.43016 13.6585 3.44589V3.45263L13.0215 2.83587L13.0193 2.76947L13.6642 3.38963Z" fill="#FF7F00"/>
<path d="M14.4452 4.14031L14.3563 4.13806L13.8431 3.63611L13.923 3.63836L14.4452 4.14031Z" fill="#FF7F00"/>
<path d="M15.4886 5.14419L15.3873 5.14194L14.8718 4.63998L14.9663 4.64223L15.4886 5.14419Z" fill="#FF7F00"/>
<path d="M16.5307 6.14815L16.4171 6.14478L15.9027 5.64282L16.0085 5.64507L16.5307 6.14815Z" fill="#FF7F00"/>
<path d="M17.5718 7.1498L17.4457 7.14643L16.9314 6.64447L17.0507 6.64784L17.5718 7.1498Z" fill="#FF7F00"/>
<path d="M33.9945 14.2802H31.885L31.2409 13.6613L29.7311 12.2062L23.2253 5.94551L17.1286 11.8117H15.022L17.6634 9.26934L18.7181 8.25298L19.6384 7.3696L19.86 7.15244L23.2253 3.91574L29.7164 10.1616L31.2232 11.6138L33.9945 14.2802Z" fill="#FF7F00"/>
<path d="M9.08485 13.5642V17.4671H7.34166V16.0711H7.07575L7.07723 15.7786L6.64735 15.7771L6.16577 15.7742L6.16725 15.1892L6.41098 15.1906C6.41542 15.2882 6.42281 15.393 6.44347 15.5171L6.65031 15.5186L7.33871 15.5245L8.21029 15.529C8.29301 14.9735 8.19997 14.7342 8.19997 14.7342L7.34018 14.7283L6.65179 14.7224L6.46121 14.7209C6.46121 14.7209 6.41689 14.8243 6.4095 15.0488L6.0269 15.0459L6.02247 15.9145L6.64588 15.9174L6.93393 15.9189V16.0711H6.67245V17.4671H5.1819V13.5641L9.08485 13.5642Z" fill="white"/>
<path d="M14.0618 13.5641V17.4671H12.1857V15.294C12.1989 15.2039 12.2388 15.1227 12.3393 15.0917C12.4323 15.0606 12.5313 15.071 12.6303 15.068C12.7456 15.068 12.8607 15.0769 12.9701 15.099C13.0839 15.1197 13.1961 15.1478 13.3039 15.1906C13.3586 15.2098 13.4133 15.229 13.465 15.2542C13.4945 15.2689 13.5669 15.2911 13.6039 15.3192C13.4295 15.0828 13.2065 14.8686 12.9553 14.7061C12.8224 14.6175 12.6658 14.5318 12.4959 14.514C12.2965 14.4993 12.0985 14.5022 11.8946 14.5067C11.7779 14.5096 11.5992 14.4845 11.5667 14.6411C11.5652 14.6588 11.5578 14.6765 11.5445 14.6884C11.5209 14.7002 11.4899 14.6928 11.4648 14.6928C11.4293 14.6928 11.3953 14.6884 11.3569 14.6928C11.2964 14.7002 11.2403 14.6987 11.2136 14.6352C11.19 14.5879 11.1767 14.5495 11.1191 14.5347C11.0467 14.5155 10.9669 14.5273 10.899 14.5273L10.769 14.5303C10.7173 14.5303 10.67 14.5539 10.639 14.5982C10.6065 14.6499 10.6212 14.7179 10.6227 14.7784L10.6257 15.2246C10.6257 15.2615 10.6316 15.3162 10.67 15.3413C10.6907 15.3576 10.7187 15.3576 10.7483 15.3576H10.9241C10.9817 15.3576 11.0408 15.365 11.0999 15.3576C11.1826 15.3502 11.1796 15.2586 11.2018 15.198C11.2402 15.1124 11.3303 15.1404 11.4071 15.1419C11.4293 15.1419 11.447 15.1404 11.4721 15.1375C11.4884 15.1345 11.512 15.1286 11.5238 15.1375C11.5371 15.1449 11.5401 15.1552 11.5415 15.167C11.5415 15.17 11.5445 15.17 11.5445 15.1729V17.4671H10.1603V13.5641H14.0618Z" fill="white"/>
<path d="M19.0394 13.5641V17.4671H17.4233V15.8362C17.4233 15.7638 17.4587 15.6988 17.5149 15.6545C17.6789 15.5275 17.7852 15.328 17.7852 15.1049C17.7852 14.8479 17.6449 14.6233 17.438 14.5022V14.8833C17.438 15.0695 17.2873 15.2202 17.1012 15.2202H17.0761C16.89 15.2202 16.7393 15.0695 16.7393 14.8833V14.5022C16.5325 14.6233 16.3921 14.8479 16.3921 15.1049C16.3921 15.328 16.4985 15.5275 16.6625 15.6545C16.7186 15.6988 16.7541 15.7638 16.7541 15.8362V17.4671H15.1379V13.5641H19.0394Z" fill="white"/>
<path d="M20.1156 13.5641V17.4671H21.7894V16.2277C21.7894 15.8628 21.4466 15.5895 21.4466 15.5895H22.686C22.686 15.5895 22.3448 15.8628 22.3448 16.2277V17.4671H24.017V13.5641H20.1156ZM22.6861 15.5141H21.4467V14.5613H21.649L21.6919 15.1936L21.7421 14.5613H22.0346L22.0656 15.006L22.0996 14.5613H22.46L22.5058 15.2231L22.5561 14.5613H22.686L22.6861 15.5141Z" fill="white"/>
<path d="M27.5891 16.1996L27.5847 17.4671H27.3158L27.3202 16.2026C27.3217 16.1642 27.3365 16.1317 27.3601 16.1065C27.3852 16.0829 27.4177 16.0667 27.4547 16.0667C27.53 16.0667 27.5891 16.1258 27.5891 16.1996Z" fill="white"/>
<path d="M27.5625 14.7932C27.5611 14.8272 27.533 14.8553 27.499 14.8553L26.9834 14.8597C26.9657 14.8597 26.951 14.8523 26.9391 14.8405C26.9273 14.8302 26.9214 14.8139 26.9214 14.7977C26.9214 14.7622 26.9495 14.7341 26.9834 14.7341L27.499 14.7297C27.5345 14.7297 27.5625 14.7578 27.5625 14.7932Z" fill="white"/>
<path d="M26.7825 15.2955C26.7618 15.2955 26.7427 15.3044 26.7279 15.3177C26.7131 15.3324 26.7057 15.3531 26.7043 15.3738V15.5348L26.8608 15.5097V15.3724C26.8608 15.3295 26.8268 15.294 26.7825 15.2955ZM26.7825 15.2955C26.7618 15.2955 26.7427 15.3044 26.7279 15.3177C26.7131 15.3324 26.7057 15.3531 26.7043 15.3738V15.5348L26.8608 15.5097V15.3724C26.8608 15.3295 26.8268 15.294 26.7825 15.2955ZM25.0925 13.5641V17.4671H27.1518V17.3533C27.1518 17.3371 27.1518 17.3208 27.1503 17.3046C27.1503 17.2913 27.1489 17.278 27.1489 17.2647C27.143 17.1524 27.1016 17.0372 27.0085 16.9678C27.0012 16.9619 26.9923 16.9574 26.9849 16.9515V17.2765L26.6259 17.2795L26.6274 16.3163H26.586C26.5786 16.3119 26.5698 16.3104 26.5624 16.306C26.4472 16.2528 26.3851 16.1331 26.3777 16.0105C26.3733 15.9396 26.3807 15.8672 26.3969 15.7978C26.4043 15.7668 26.4117 15.7313 26.4279 15.7032C26.4575 15.6515 26.5077 15.6176 26.5639 15.6072L26.589 15.6043L26.6289 15.5969L26.6274 15.5466L26.6289 15.1626C26.5565 14.4269 27.0425 14.4653 27.3749 14.5421C27.4458 14.5584 27.499 14.5835 27.5403 14.616C27.6718 14.709 27.6792 14.8597 27.6733 14.9336C27.6718 14.9572 27.6511 14.9764 27.6275 14.9764L27.4 14.9779C27.304 14.9794 27.2065 14.972 27.1105 14.972C27.0721 14.972 27.0366 14.9823 27.0174 15.0207C27.01 15.037 27.0041 15.0532 26.9982 15.071C26.9894 15.1049 26.9879 15.1404 26.9894 15.1759C26.9879 15.1759 26.9879 15.4359 26.9879 15.4359V15.5407L27.0957 15.523L27.7118 15.5659V15.5673L27.7058 17.4671H28.9955V13.5641H25.0925ZM27.6467 15.5112L27.0883 15.4728V15.3901C27.0883 15.3517 27.1193 15.3221 27.1578 15.3236L27.6467 15.3206V15.5112ZM26.8594 16.696C26.88 16.6679 26.9081 16.6649 26.9362 16.6649C26.9391 16.6649 26.9524 16.6635 26.9627 16.6635C26.9731 16.6635 26.9819 16.6561 26.9819 16.6457L26.9834 16.3325C26.9834 16.3311 26.9834 16.3311 26.9834 16.3311C26.9819 16.3222 26.9745 16.3133 26.9642 16.3133L26.8594 16.3148H26.7027V16.7934C26.7027 16.8363 26.7367 16.8717 26.781 16.8717C26.8017 16.8717 26.8209 16.8629 26.8357 16.8481C26.8475 16.8348 26.8564 16.82 26.8578 16.8008C26.8578 16.8008 26.8578 16.8008 26.8593 16.7993C26.8578 16.7964 26.8578 16.7949 26.8578 16.792L26.8593 16.6974C26.8594 16.696 26.8594 16.696 26.8594 16.696ZM26.7825 15.2955C26.7618 15.2955 26.7427 15.3044 26.7279 15.3177C26.7131 15.3324 26.7057 15.3531 26.7043 15.3738V15.5348L26.8608 15.5097V15.3724C26.8608 15.3295 26.8268 15.294 26.7825 15.2955ZM26.7825 15.2955C26.7618 15.2955 26.7427 15.3044 26.7279 15.3177C26.7131 15.3324 26.7057 15.3531 26.7043 15.3738V15.5348L26.8608 15.5097V15.3724C26.8608 15.3295 26.8268 15.294 26.7825 15.2955Z" fill="white"/>
<path d="M26.9642 16.3134L26.8593 16.3149V16.696C26.88 16.6679 26.9081 16.665 26.9362 16.665C26.9391 16.665 26.9524 16.6635 26.9627 16.6635C26.9731 16.6635 26.9819 16.6561 26.9819 16.6458L26.9834 16.3326C26.9834 16.3311 26.9834 16.3311 26.9834 16.3311C26.9819 16.3223 26.9745 16.3134 26.9642 16.3134ZM26.9642 16.3134L26.8593 16.3149V16.696C26.88 16.6679 26.9081 16.665 26.9362 16.665C26.9391 16.665 26.9524 16.6635 26.9627 16.6635C26.9731 16.6635 26.9819 16.6561 26.9819 16.6458L26.9834 16.3326C26.9834 16.3311 26.9834 16.3311 26.9834 16.3311C26.9819 16.3223 26.9745 16.3134 26.9642 16.3134ZM26.9642 16.3134L26.8593 16.3149V16.696C26.88 16.6679 26.9081 16.665 26.9362 16.665C26.9391 16.665 26.9524 16.6635 26.9627 16.6635C26.9731 16.6635 26.9819 16.6561 26.9819 16.6458L26.9834 16.3326C26.9834 16.3311 26.9834 16.3311 26.9834 16.3311C26.9819 16.3223 26.9745 16.3134 26.9642 16.3134ZM26.9642 16.3134L26.8593 16.3149V16.696C26.88 16.6679 26.9081 16.665 26.9362 16.665C26.9391 16.665 26.9524 16.6635 26.9627 16.6635C26.9731 16.6635 26.9819 16.6561 26.9819 16.6458L26.9834 16.3326C26.9834 16.3311 26.9834 16.3311 26.9834 16.3311C26.9819 16.3223 26.9745 16.3134 26.9642 16.3134ZM26.9642 16.3134L26.8593 16.3149V16.696C26.88 16.6679 26.9081 16.665 26.9362 16.665C26.9391 16.665 26.9524 16.6635 26.9627 16.6635C26.9731 16.6635 26.9819 16.6561 26.9819 16.6458L26.9834 16.3326C26.9834 16.3311 26.9834 16.3311 26.9834 16.3311C26.9819 16.3223 26.9745 16.3134 26.9642 16.3134ZM26.9642 16.3134L26.8593 16.3149V16.696C26.88 16.6679 26.9081 16.665 26.9362 16.665C26.9391 16.665 26.9524 16.6635 26.9627 16.6635C26.9731 16.6635 26.9819 16.6561 26.9819 16.6458L26.9834 16.3326C26.9834 16.3311 26.9834 16.3311 26.9834 16.3311C26.9819 16.3223 26.9745 16.3134 26.9642 16.3134Z" fill="white"/>
<path d="M26.846 16.7566C26.849 16.7684 26.8519 16.7817 26.8578 16.792L26.8593 16.6974C26.8475 16.7152 26.8431 16.7359 26.846 16.7566Z" fill="white"/>
</svg>
